<?xml version="1.0" standalone="no"?>
<!DOCTYPE svg PUBLIC "-//W3C//DTD SVG 20010904//EN"
 "http://www.w3.org/TR/2001/REC-SVG-20010904/DTD/svg10.dtd">
<svg version="1.0" xmlns="http://www.w3.org/2000/svg"
 width="167.000000pt" height="252.000000pt" viewBox="0 0 167.000000 252.000000"
 preserveAspectRatio="xMidYMid meet">

<g transform="translate(0.000000,252.000000) scale(0.100000,-0.100000)"
fill="#000000" stroke="none">
<path d="M196 2484 c-68 -21 -146 -100 -174 -177 -22 -58 -22 -58 -22 -1060
l0 -1002 26 -55 c29 -64 83 -123 139 -153 40 -22 41 -22 765 -22 l725 0 3
1234 c2 981 0 1236 -10 1243 -7 4 -326 7 -708 7 -588 0 -703 -3 -744 -15z
m1412 -926 l-3 -883 -705 -5 -705 -5 -46 -27 c-26 -15 -59 -42 -73 -59 l-26
-31 0 834 c0 926 -2 897 66 976 74 87 19 81 802 82 l692 0 -2 -882z m2 -1213
l0 -275 -690 0 c-763 0 -727 -3 -793 65 -103 106 -102 317 2 419 69 67 43 65
799 66 l682 0 0 -275z"/>
<path d="M614 1535 c-57 -29 -90 -73 -100 -131 -12 -77 7 -107 159 -261 78
-79 146 -143 152 -143 13 0 289 278 304 307 15 30 14 107 -3 146 -27 67 -120
116 -192 103 -17 -4 -49 -18 -69 -31 -36 -25 -37 -25 -63 -7 -32 22 -87 42
-117 42 -11 0 -43 -11 -71 -25z m134 -49 c15 -8 36 -23 46 -35 26 -28 41 -26
79 9 103 96 262 -7 203 -132 -9 -19 -68 -86 -132 -148 l-115 -114 -130 130
c-124 126 -129 132 -129 173 0 78 46 130 118 131 18 0 45 -6 60 -14z"/>
</g>
</svg>
